<svg viewBox="0 0 100 100" fill="none" xmlns="http://www.w3.org/2000/svg">
  <path d="M50 50 C30 30, 10 35, 15 55 C18 70, 35 75, 50 50" fill="#f97316" fill-opacity="0.9" />
  <path d="M50 50 C35 60, 20 80, 30 85 C40 88, 48 70, 50 50" fill="#fdba74" fill-opacity="0.85" />
  
  <path d="M50 50 C70 30, 90 35, 85 55 C82 70, 65 75, 50 50" fill="#f97316" fill-opacity="0.9" />
  <path d="M50 50 C65 60, 80 80, 70 85 C60 88, 52 70, 50 50" fill="#fdba74" fill-opacity="0.85" />
  
  <path d="M50 50 C35 40, 22 42, 25 52" stroke="#ea580c" stroke-width="2" fill="none" stroke-opacity="0.6" />
  <circle cx="30" cy="48" r="4" fill="#fed7aa" fill-opacity="0.5" />
  <path d="M50 50 C65 40, 78 42, 75 52" stroke="#ea580c" stroke-width="2" fill="none" stroke-opacity="0.6" />
  <circle cx="70" cy="48" r="4" fill="#fed7aa" fill-opacity="0.5" />
  
  <ellipse cx="50" cy="55" rx="4" ry="18" fill="#1f2937" />
  <circle cx="50" cy="35" r="5" fill="#1f2937" />
  
  <path d="M48 32 C45 25, 40 20, 38 18" stroke="#1f2937" stroke-width="1.5" stroke-linecap="round" fill="none" />
  <path d="M52 32 C55 25, 60 20, 62 18" stroke="#1f2937" stroke-width="1.5" stroke-linecap="round" fill="none" />
  <circle cx="38" cy="17" r="2" fill="#f97316" />
  <circle cx="62" cy="17" r="2" fill="#f97316" />
</svg>